<svg xmlns="http://www.w3.org/2000/svg" xmlns:xlink="http://www.w3.org/1999/xlink" viewBox="0 0 1126.74 703.94"><defs><style>.cls-1{fill:none;}.cls-2,.cls-4{fill:#8db0e1;}.cls-3{clip-path:url(#clip-path);}.cls-4{stroke:#8db0e1;stroke-linecap:round;stroke-width:0.75px;}.cls-4,.cls-5,.cls-6,.cls-7,.cls-8,.cls-9{stroke-linejoin:round;}.cls-11,.cls-5{fill:#8bc8a4;}.cls-5,.cls-6,.cls-7,.cls-8,.cls-9{stroke:#646363;stroke-width:0.21px;fill-rule:evenodd;}.cls-12,.cls-6{fill:#4bb375;}.cls-13,.cls-7{fill:#1ca459;}.cls-14,.cls-29,.cls-8{fill:#068043;}.cls-15,.cls-9{fill:#036237;}.cls-10{clip-path:url(#clip-path-3);}.cls-16{font-size:12px;}.cls-16,.cls-21,.cls-22,.cls-23{font-family:Montserrat-Regular, Montserrat;}.cls-17,.cls-23{letter-spacing:-0.01em;}.cls-18{font-size:10px;font-family:Montserrat-Bold, Montserrat;font-weight:700;}.cls-19{letter-spacing:-0.01em;}.cls-20{letter-spacing:-0.01em;}.cls-21,.cls-22,.cls-23{font-weight:400;}.cls-22{letter-spacing:-0.01em;}.cls-24{letter-spacing:-0.01em;}.cls-25{letter-spacing:-0.02em;}.cls-26{letter-spacing:0.01em;}.cls-27{font-size:36px;font-family:Montserrat-ExtraBoldItalic, Montserrat;font-weight:800;font-style:italic;}.cls-28{letter-spacing:-0.02em;}.cls-29{letter-spacing:-0.01em;}.cls-30{letter-spacing:-0.01em;}.cls-31{letter-spacing:0.03em;}</style><clipPath id="clip-path" transform="translate(0 108.29)"><rect class="cls-1" x="14.13" width="567.01" height="595.28"/></clipPath><clipPath id="clip-path-3" transform="translate(0 108.29)"><rect class="cls-1" x="-3.83" y="-14.11" width="595.28" height="595.28"/></clipPath></defs><g id="Calque_1" data-name="Calque 1"><rect class="cls-2" y="108.29" width="595.28" height="595.28"/><g class="cls-3"><rect class="cls-4" x="14.13" y="108.29" width="567.01" height="595.28"/></g><g class="cls-3"><rect class="cls-4" x="14.13" y="108.29" width="567.01" height="595.28"/><path class="cls-5" d="M294.43,351.2l1.85,5.59,2.15,4.49,1.72,2.43,2.87,3.92,5-.61,2.48-1L314.6,367l1.12-1.88,1.88-4.37,4.65-.29.41-1.3,3.82,0-.65,2.7,9.09-.06.14,4.72,1.52,2.89-1.1,4.52.55,4.61,2.5,2.78-.4,8.93,1.85-.69,3.26.18,4.64-1.12,3.42.44.79,2.33-.85,3.64,1.31,3.51-1.11,2.81.64,2.59-15.61-.09-.35,23.85,5.06,6.14,4.89,4.68-13.78,3.06-18.15-1.06-5.19-3.6-30.39.33-1.13.53-4.47-3.4-4.86-.22-4.49,1.28L260,436.86l-.7-4.71,1-6.59,2.58-6.87.39-3.22,2.43-6.76,1.79-3.07,4.31-4.91,2.4-3.33.79-5.56-.39-4.25-2.24-2.68-2-4.55-1.84-4.5.4-1.55,2.3-3L269,364.09l-1.53-5-3.76-4.74.71-1.46,3.1-1,2.17.14,2.63-.9Z" transform="translate(0 108.29)"/><path class="cls-5" d="M265.27,349.75l-1.91.79-2-5.64,3-3.23,2.27-1.27,2.81,2.58-2.73,1.57-1.23,1.93Z" transform="translate(0 108.29)"/><path class="cls-6" d="M392,340.87l-.48-9-1.88-3.41,4.55.59,2.29-4.27,4,.49.43,2.95,1.62,1.7.06,2.44-1.84,1.57-2.92,3.91-2.72,2.71Z" transform="translate(0 108.29)"/><path class="cls-6" d="M192.21,260.19l-6.19.88-1.85-5.17.34-17.22L183,237.13l-.28-3.68-2.6-2.63-2.29-2.21.95-4,2.58-.85,1.52-3.27,3.67-.7,1.64-2.25,2.51-2.19,2.69,0,5.72,4.31-.29,2.49,1.68,4.45-1.48,3,.79,2-3.63,4.64-2.31,2.3-1.41,4.73.18,4.77Z" transform="translate(0 108.29)"/><path class="cls-7" d="M150.84,234.82l-5.13-1.93-3.51.28-2.63,1.89-3.37-1.58L134.89,231l-3.37-1.64L131,225l2-3.18-.17-2.54,5.95-6.21,1.1-5.15L142,206.1l3.63,1,3.14-1.52,1-1.93,5.81-3.36L157,198l7-3.11,4.13-1.07,1.87,1.44,4.81,0-.6,3.64,1,3.41,4.22,4.9.23,3.63,8.65,1.7-.17,5.13-1.64,2.25-3.67.7-1.52,3.27-2.58.85-6.57-.16-3.46-.59-2.42,1.21-3.32-.55-13,.35-.17,4.26Z" transform="translate(0 108.29)"/><path class="cls-5" d="M364.32,446.12l1.51,1.34,2.35,4.34,8.49,8.23,3.21.81,0,2.64,2.2,4.76,5.8,1.15,4.78,3.39-10.61,5.52-6.73,5.6-2.5,5-2.25,2.81-4.08.6-1.32,3.59-.76,2.34L359.64,500l-6.1-.38-3.58-2.1-3.16-.91-3.66,1.74-1.83,3.59-3.55,2.26L334,507.54l-5.37.76L327,505.67l.69-4.57L323.21,494l-2-1.12V471l7.38-.26L328.8,444l5.58-.25,11.55-2.62,2.87,3.09,4.78-2.94,2.28,0,4.23-1.69,1.34.56Z" transform="translate(0 108.29)"/><path class="cls-6" d="M286.58,251.47l6.2-.56,1.38-1.93,1.24.15,1.87,1.7,9.44-2.87L309.9,245l3.91-2.62-.75-2.64,2.12-.69,7.24.46,7.05-3.47,5.42-8.18,3.8-3,4.75-1.27.85,3.2,4.32,4.69,0,3.06-1.22,3.12.48,2.33,2.6,2.16,5.71,3.28,4.1,3,.07,2.44,5,3.9,3.13,3.25,1.89,4.5,5.61,3,1.2,2.38-2.47.8L370,268.5l-5.64-.79-2.79.65-1.12,1.82-2.43.22-3-1.58-8.34,3.74-3.42-.75-1,.58L340,276.91l-5.59-1.46-5.49-.74L324.15,272,318,269.4l-4,2.41-2.91,3.81-.68,5.23-4.82-.42-5.07-1.26-4.47,4-3.93,7-.79-2.17-.34-3.42-3.43-2.41-2.76-3.87-.64-2.7-3.54-3.91.6-2.24-.75-3.15.58-5.82,1.8-1.36Z" transform="translate(0 108.29)"/><path class="cls-6" d="M150.62,269.68l-3.41.07L142,268.29l-4.8.08-8.88,1.31-5.21,2.17-7.42,2.75-1.45-.2.58-6.18.71-.94-.23-2.95-3.17-3.14-2.38-.5-2.19-2.06,1.63-3.33-.75-3.63.35-2.18H110l.44-3.27-.58-1.44.72-1.05,2.78-.9-1.85-6-1.73-3.1.6-2.55,1.5-.58,1-.68,2.07,1.13,5.79.06,1.38-2.19,1.29.15,2.17-.85,1.16,3.21,1.75-.95,3.09-1.11,3.37,1.64,1.31,2.48,3.37,1.58,2.63-1.89,3.51-.28,5.13,1.93,2,10.67-3.16,6.3-2,8.47,3.25,6.46Z" transform="translate(0 108.29)"/><path class="cls-6" d="M270.06,290.13l-.93-.41-4.44,1-4.56-1-3.56.49-12.2-.17,1.1-5.92-2.93-5-3.42-1.27-1.53-3.36-1.92-1.07.09-2.08,1.93-5.3,3.56-7.24,2.17-.06,4.47-4.39,2.84-.13,4.21,3.08,5.15-2.52.7-3.12,1.68-3,1.17-3.79,4-3.09,1.51-5.25,1.59-1.67,1.06-3.9,2-4.79,6.31-5.8.4-2.49.82-1.36-3-3,.24-2.39,2.12-.43,3,4.8.5,5-.28,5,4.08,6.81-4.18-.07-2.12.53-3.42-.75-1.62,3.54,4.42,4.38,3.27,1.27,1.05,3.1,2.36,5.17-1.17,2-3.77,7.6-1.8,1.36-.58,5.82.75,3.15-.6,2.24,3.54,3.91.64,2.7,2.76,3.87,3.43,2.41.34,3.42.79,2.17-.54,4.05-6-1.77-6.06-2Z" transform="translate(0 108.29)"/><path class="cls-5" d="M403.19,280.81l-.46,8.77,3,1-2.41,2.66-2.88,2-2.87,3.91L396,302.65l-.42,6-1.73,2.86-.07,5.65-2.15,2.09-.28,4.47-1,.57-.69,4.11,1.88,3.41.48,9,1.35,6.9-.75,3.9,1.5,4.35,4.34,4.2,4.05,9.44-3-.76-10.07,1.27-2,.89-2.14,4.79,1.68,3.31L385.66,388l-.93,7.53,2,1.34,5.24,2.91,2.06-1.36.62,8.09-5.73-.07-3.08-4.12-2.77-3.2-5.74-1-1.68-3.93-4.58,2.37-6-1-2.5-3.41-4.76-.69-3.52.18-.43-2.33-2.58-.19-3.42-.44-4.64,1.12-3.26-.18-1.85.69.4-8.93-2.5-2.78-.55-4.61,1.1-4.52-1.52-2.89-.14-4.72-9.09.06.65-2.7-3.82,0-.41,1.3-4.65.29-1.88,4.37L314.6,367,310.46,366,308,367l-5,.61-2.87-3.92-1.72-2.43-2.15-4.49-1.85-5.59-22.12-.1-2.63.9-2.17-.14-3.1,1-1.05-2.33,1.91-.79.23-3.27,1.23-1.93,2.73-1.57,2,.76,2.56-2.87,4.09.07.48,2.13,2.8,1.33,4.41-4.7,4.36-3.67,1.9-2.4-.25-6.16,3.25-7.29,3.44-3.86,4.93-3.62.87-2.39.18-2.75,1.23-2.6-.4-4.25.94-6.64,1.46-4.68,2.25-4,.44-4.53.68-5.23,2.91-3.81,4-2.41,6.17,2.55,4.77,2.76,5.49.74,5.59,1.46,2.24-4.52,1-.58,3.42.75,8.34-3.74,3,1.58,2.43-.22,1.12-1.82,2.79-.65,5.64.79,4.81.18,2.47-.8,4.54,6.19,3.37.91,2-1.26,3.47.49,4.18-1.58,1.78,3.2Z" transform="translate(0 108.29)"/><path class="cls-6" d="M269.46,343l-2.81-2.58-2.27,1.27-3,3.23L255.2,337l5.71-4.14-2.83-5,2.57-1.88,5.06-.92.6-3.32,4,3.6,6.62.31,2.3-3.54.95-5-.82-5.86-3.55-4.43,3.25-8.69-1.87-1.49-5.58.61-2.09-3.87.54-3.27,9.46.29,6.06,2,6,1.77.54-4.05,3.93-7,4.47-4,5.07,1.26,4.82.42-.44,4.53-2.25,4-1.46,4.68-.94,6.64.4,4.25-1.23,2.6-.18,2.75-.87,2.39-4.93,3.62L295,320.18l-3.25,7.29.25,6.16-1.9,2.4-4.36,3.67-4.41,4.7-2.8-1.33-.48-2.13-4.09-.07-2.56,2.87Z" transform="translate(0 108.29)"/><path class="cls-6" d="M495,211.9l1.77,2.32-.23,3.11-4.28,1.8,3.22,2.05-2.76,4-1.66-1.34-1.81.54-4.19-.13-.12-2.28-.58-2.07,2.54-3.52,2.63-3.31,3.21.65Z" transform="translate(0 108.29)"/><path class="cls-7" d="M262,131.12l-25.69,14.3-21.7,14.73L204,163.49l-8.32.74-.08-4.78-3.48-1.22-4.66-2.14-1.79-3.51-25.28-16.36-25.29-16.37-28.2-18.15.15-1.45v-.5L107,90.86l12.11-5.53,7.48-1.15,6.14-2,2.86-3.76,8.77-3,.32-5.56,4.34-.65,3.39-2.77,9.81-1.27,1.38-2.91-2-1.59L159,52.78l-.45-4.56-2.82-4.8,7.21-4.1,8.1-1.3,4.73-3.1L183,32.64l12.71-1.34,12.4-.61,3.78,1.12,7.06-3,8-.06,3,1.75,5.12-.46-1.52,3.85,1.19,7.15-1.76,6.19-4.63,4.18.67,5.65,6.13,4.46.06,1.82,4.62,3,3.2,13.47,2.43,6.62L246,90l-1.32,6.12.54,3.42-.95,4.1.66,4.72-3,3.13,4.43,5.46.28,3.22,2.67,4.18,3.5-1.38,5.92,3.49Z" transform="translate(0 108.29)"/><path class="cls-5" d="M433.84,85.91l-2.11,3-1.61,5.67-2,3.9-1.75,1.31-2.5-2.42L420.45,94,415.1,83.29l-.77.68,3.11,7.91,4.6,7.54,5.67,11.68,2.76,4.08,2.41,4.23,6.73,8.3L438.12,129l.24,4.87,8.73,6.73,1.32,1.54h-89V87.88l-2.25-6,1.93-4.63L358,74l2.72-3.59,10-.13,7.22,2,7.44,2.22,3.47,1.17,5.77-2.38,3.09-2.15,6.61-.61,5.33.94,2,3.72,1.74-2.45,6,1.77,5.84.43L428.91,73Z" transform="translate(0 108.29)"/><path class="cls-6" d="M489.53,213.08,487,210.65l-3.08-4.39-3.33-2.41-1.94-2.59-6.52-3-5.14-.09-1.81-1.57-4.4,1.77L456.2,195l-2.34,5.6L445.14,199l-.8-3,3.23-11,.74-5,2.36-2.3,5.52-1.23,3.79-4.28,4.36,8.68,2.06,6.88,4.11,3.65,10.23,7.09,4.17,4.27,4.06,4.33,2.35,2.57L495,211.9l-2.26,1.83Z" transform="translate(0 108.29)"/><path class="cls-6" d="M456.2,195l4.55,3.41,4.4-1.77,1.81,1.57,5.14.09,6.52,3,1.94,2.59,3.33,2.41,3.08,4.39,2.56,2.43-2.63,3.31-2.54,3.52.58,2.07.12,2.28,4.19.13,1.81-.54,1.66,1.34-1.64,2.66,2.77,4.13,2.77,3.61,2.86,2.67,24.51,8.9,6.31,0-21.19,22.5-9.76.33-6.68,5.29-4.81.14-2.05,2.36h-5.12l-3-2.53-6.85,3.13-2.21,3.13-5-.59-1.66-.87-1.76.21-2.36-.08-9.49-6.37h-5.22l-2.56-2.46V267.1l-3.9-1.26-4.43-8.16-3.42-1.74-1.31-3-3.8-3.65-4.61-.54,2.56-4.27,4-.18,1.12-2.29-.1-6.75,2.22-7.84,3.55-2.1.76-3.07,3.21-5.73,4.52-3.71,3.05-7.39,1.2-6.44,8.72,1.57Z" transform="translate(0 108.29)"/><path class="cls-6" d="M255.2,337l-7.7-7.57-5-6.18L238,315.46l.24-2.49,1.64-2.4,1.82-5.46,1.51-5.56,2.53-.43,10.91.08-.07-9,3.56-.49,4.56,1,4.44-1,.93.41-.54,3.27,2.09,3.87,5.58-.61,1.87,1.49-3.25,8.69,3.55,4.43.82,5.86-.95,5-2.3,3.54-6.62-.31-4-3.6-.6,3.32-5.06.92-2.57,1.88,2.83,5Z" transform="translate(0 108.29)"/><path class="cls-6" d="M180,262.67l-11.75,4.39-4.17,2.57-6.75,2.18-6.69-2.13.34-3-3.25-6.46,2-8.47,3.16-6.3-2-10.67-1-5.64.17-4.26,13-.35,3.32.55,2.42-1.21,3.46.59-.55,2.34,3.13,3.87v5.44l.71,5.91,1.88,2.74-1.65,6.75.59,3.73,2,4.76Z" transform="translate(0 108.29)"/><path class="cls-6" d="M108.77,249.49l-2.12-.19-1.53,3-2.12,0-1.46-1.59.5-3-3.14-4.59-2,.85-1.6.16-2.06.43.08-2.75-1.2-2,.24-2.18-1.62-3.15-2.09-2.68h-6L81,233.2l-2.07.17L77.6,235l-.86,2.08-4,3.3-3.29-4.44L66.53,233l-1.92-1-1.87-1.49-.85-3.31-1.1-1.65-2.18-1.23,3.33-3.65,2.28.13,2-1.25,1.66,0,1.18-1-.64-2.48.82-.79.14-2.54,3.62.08,5.38,1.82,1.66-.16.56-.84,4.09.6,1.08-.43.43,2.75h1.19l2-1,1.24.25,2.08,1.9,3.21.6,2.06-1.62,2.42-1,1.8-1.05,1.5.19,1.67,1.65.89,2.07,3.07,3.14-1.54,1.93-.29,2.44,1.6-.74.94.88-.4,2.23,2.29,2.16-1.5.58-.6,2.55,1.73,3.1,1.85,6-2.78.9-.72,1.05.58,1.44-.44,3.27Z" transform="translate(0 108.29)"/><path class="cls-6" d="M45.78,208.51l1-3.33L54.9,205l1.7-1.78,2.37-.12,3,1.85,2.33,0,2.47-1.26,1.51,2.17L65,207.54l-3.26-.13-3.21-1.58-2.78,1.73-1.34.06-1.81,1Z" transform="translate(0 108.29)"/><path class="cls-6" d="M58.61,224.34l-4-3.13-3.16-.5-1.72-2.11,0-1.15-2.28-1.59-.48-1.6L51,213l2.48.24,2-.85,13.86.32-.14,2.54-.82.79.64,2.48-1.18,1-1.66,0-2,1.25-2.28-.13Z" transform="translate(0 108.29)"/><path class="cls-6" d="M243.2,299.55l-1.4-1.13,2.57-8.42,12.2.17.07,9-10.91-.08Z" transform="translate(0 108.29)"/><path class="cls-6" d="M479.35,313.56l4.44,6.19-5.26,3-1.85,3.13-2.81.55-1.06,5.28-2.41,3-1.46,5-3,2.48-10.76-7.5-.51-4.35-27.18-15.28-1.27-.82-.08-7.95,2.15-3,3.69-5,2.73-5.46-3.3-8.61-.88-3.77-3.55-5.2,4.61-4.48,5.08-4.94,3.9,1.26v4.21l2.56,2.46h5.22l9.49,6.37,2.36.08,1.76-.21,1.66.87,5,.59,2.21-3.13,6.85-3.13,3,2.53h5.12l-6.55,8.51Z" transform="translate(0 108.29)"/><path class="cls-5" d="M114.22,274.4l-2,.06-7.73-3.57-6.81-5.71-6.39-4.1-5-4.84,1.79-2.4.4-2.18,3.38-4.07,3.49-3.5,1.6-.16,2-.85,3.14,4.59-.5,3,1.46,1.59,2.12,0,1.53-3,2.12.19-.35,2.18.75,3.63-1.63,3.33,2.19,2.06,2.38.5,3.17,3.14.23,2.95-.71.94Z" transform="translate(0 108.29)"/><path class="cls-6" d="M283.37,135.69l-5.3,2.79-4.22-4.12L262,131.12l-3.29-4.69-5.92-3.49-3.5,1.38-2.67-4.18-.28-3.22-4.43-5.46,3-3.13-.66-4.72.95-4.1-.54-3.42L246,90l-.4-3.48-2.43-6.62,3.66-1.74.65-3.17-.8-3.11L251.78,69l2.31-2.4,3.65-2.15.42-5.76L267,61.23l3.15-.64,6.26,1.25,9.95,3.35,3.51,6.66,6.73,1.46,10.56,3.14,8,3.72,3.66-1.94,3.59-3.45L320.62,69,323,65.39l5.4-3.52,5.17-1,10.14,1.54,2.55,3.35,2.8,0,2.38,1.28,7.45.88,1.83,2.48L358,74l1.16,3.21-1.93,4.63,2.25,6v69.25l-8.62,0-.09,3.14L320.84,146l-29.9-14.36Z" transform="translate(0 108.29)"/><path class="cls-6" d="M389.28,524.25l2.6,2.26-2.3,3.65-1.28,2.45-4.18,1.17-1.37,2.39-2.69.75-5.62-5.77,4-4.75,4.06-2.93,3.5-1.53Z" transform="translate(0 108.29)"/><path class="cls-5" d="M133.1,39l4.52,3.18,7.13-.52,7.76,1.66,3.26.08,2.82,4.8.45,4.56,2.59,7.92,2,1.59-1.38,2.91-9.81,1.27L149,69.24l-4.34.65-.32,5.56-8.77,3-2.86,3.76-6.14,2-7.48,1.15L107,90.86l.06,8.89h-1.14l.17,4-4.63.24-2.42,1.71h-3.4l-2.71-1-6.31.8-2.44,5.85-2.34.54-3.53,9.46L67.9,129.48l-2.48,10.35-3.07,3.37-.9,2.7-16.88.6h-.13l.35-3.47L47.67,141l2.46-3.9-.49-2.54,2.58-5.29,4.17-4.77,2.53-1.21,2-4.37.18-4,2.7-4.63,5-2.73,4.75-7.66.14-.11,3.77-2.88,7-.83,5.9-5.12,3.76-2,6.26-6.26-1.87-9.33,2.85-6.45,1-4,4.82-5.07,7.52-3.42,5.56-3.1,5-7.76L127.58,39Z" transform="translate(0 108.29)"/><path class="cls-6" d="M543.45,400.63l2,3.19,1.85,4.95,1.21,9,1.94,3.5-.74,3.6-1.33,2.2-2.55-4.39-1.41,2.22,1.43,5.55-.66,3.18-2.07,1.74-.47,6.35-2.95,8.74L536,460.82,531.36,475l-2.88,10.43-3.38,8.69-6.1,1.78-6.54,3.17-4.32-1.92-5.95-2.68-2.07-4-.5-6.64-2.64-6-.68-5.4,1.34-5.4,3.45-1.3,0-2.5,3.58-5.68.68-4.78-1.74-3.55-1.42-4.73-.6-6.91,2.62-4.19,1-4.76,3.73-.27,4.18-1.54,2.78-1.36,3.29-.1,4.28-4.27,6.16-4.62,2.25-3.77-1-3.21,3.19.91,4.13-5.21.14-4.51,2.48-3.36Z" transform="translate(0 108.29)"/><path class="cls-6" d="M80.8,197.52l2.52-1.36,1.26-4.42,2.38-.17,5.23,2.08,4.23-1.48,2.9.5,1.12-1.67,30.08-.11,1.67-5.25-1.3-.93-3.62-32.36L123.65,120l11.48-.14,25.29,16.37,25.28,16.36,1.79,3.51,4.66,2.14,3.48,1.22.08,4.78,8.32-.74,0,17.27-4.1,5-.64,4.62-6.66,1.19-10.23.64-2.77,2.67-4.8.29-4.81,0-1.87-1.44L164,194.85,157,198l-1.43,2.34-5.81,3.36-1,1.93-3.14,1.52-3.63-1L140,207.93l-1.1,5.15-5.95,6.21.17,2.54L131,225l.5,4.35-3.09,1.11-1.75.95-1.16-3.21-2.17.85-1.29-.15-1.38,2.19-5.79-.06-2.07-1.13-1,.68-2.29-2.16.4-2.23-.94-.88-1.6.74.29-2.44,1.54-1.93-3.07-3.14-.89-2.07-1.67-1.65-1.5-.19-1.8,1.05-2.42,1-2.06,1.62-3.21-.6-2.08-1.9-1.24-.25-2,1H86.15l-.43-2.75.34-2.33-.64-2.9-2.8-2.11-1.48-4.29Z" transform="translate(0 108.29)"/><path class="cls-6" d="M431.12,393.51l5.64-.61,9,2.12,2-.95,5.22-.2,2.67-2.24,4.49.12,8.2-2.91,6-4.35,1.21,3.36-.31,7.47.93,6.58.29,11.72,1.32,3.67-2.24,5.36-2.91,5.21-4.77,4.65-6.86,2.85L452.49,439,444,447.05l-2.88,1.36-5.23,5.33-3.09,1.74-.64,5.34,3.56,5.68,1.48,4.4.09,2.24,1.33-.37-.22,7.35-1.21,3.49,1.76,1.28L437.86,488l-3.14,2.67-6.18,2.53-9,4.06L416.24,500l.64,3.16,1.92.51-.65,3.94-5.68-.06-.65-3.31-1.11-3.37-.64-2.69,1.34-8.36-2-5.33L405.87,474l7.9-8.51,2-5.41,1.13-.68.85-4.42-1.2-2.22.32-5.6,1.46-5.2,0-9.49L414.39,430l-3.57-.54-1.62-1.86-3.47-1.58-6.25.15-.49-2.8-.71-5.34L421,411.89l4.32,3.6,2.06-.69,3,1.9.43,3-1.57,3.48.55,5.29,4.89,4.63,2.29-5.2,3.25-1.58-.64-9.64-3.14-5.43-2.71-2.41-2.6.11-2.1-9.75Z" transform="translate(0 108.29)"/><path class="cls-7" d="M80.8,197.52l-5-5.15-4.54-5.51-5-2-3.59-2.21-4.18.09-3.66,1.63-3.73-.65-2.56,2.41-.65-4,2.09-3.7.93-7.06-.83-7.41-.9-3.73.75-3.74-1.94-3.56-4-3.24,1.63-2.5,29.36.05-1.42-10.83,1.83-3.85,7-.68-.25-19.18,24.61.39,0-11.36,28.2,18.15-11.48.14,3.62,32.36,3.62,32.36,1.3.93-1.67,5.25-30.08.11-1.12,1.67-2.9-.5-4.23,1.48L87,191.57l-2.38.17-1.26,4.42Z" transform="translate(0 108.29)"/><path class="cls-6" d="M431.12,393.51l-2.1,5.7,2.1,9.75,2.6-.11,2.71,2.41,3.14,5.43.64,9.64L437,427.91l-2.29,5.2-4.89-4.63-.55-5.29,1.57-3.48-.43-3-3-1.9-2.06.69-4.32-3.6L417.09,410l2.27-7,2.36-2.61-1.44-6.22,1.51-6.08,1.28-2-1.91-6.36-3.54-3.35,7.35,1.4,1.51,2.07,2.54,3.5Z" transform="translate(0 108.29)"/><path class="cls-6" d="M294.57,521.41,289,515.74l-2.94-5.47-1.65-7.3-1.85-5.43L280.05,486l-.17-9-1-4.09L276,469.84l-3.87-6.2-3.94-9-1.63-4.71-6.1-7.32-.46-5.76,3.61-1.42,4.49-1.28,4.86.22,4.47,3.4,1.13-.53,30.39-.33,5.19,3.6,18.15,1.06,13.78-3.06,6.14-1.7,4.86.43,3,1.69.06.62-4.23,1.69-2.28,0-4.78,2.94-2.87-3.09-11.55,2.62-5.58.25-.23,26.71-7.38.26v49.58l-6.69,3.84-4,.54-4.71-1.41-3.37-.55-1.26-3.21-3-2Z" transform="translate(0 108.29)"/><path class="cls-6" d="M188.19,217.59l.17-5.13-8.65-1.7-.23-3.63-4.22-4.9-1-3.41.6-3.64,4.8-.29,2.77-2.67,10.23-.64,6.66-1.19.64-4.62,4.1-5,0-17.27,10.57-3.34,21.7-14.73L262,131.12l11.86,3.24,4.22,4.12,5.3-2.79,1.84,11.65,2.81,1.95.12,2.39,3.12,2.57-1.63,3.23-2.89,15.21-.4,9.76-9.56,7.07-3.24,9.87,3.12,2.78V207l4.81.17-.75,3.53-2.12.43-.24,2.39-1.4.16-5.07-8.21-1.76-.29-5.86,4.19-5.8-2.19-4-.44-2.16,1-4.4-.22-4.42,3.19-3.82.19-9.08-3.88L227,208.91l-3.82-.13L220.35,206l-7.51-2.8-8.06.89-1.95,1.62L201.78,210l-2.15,3-.52,6.69-5.72-4.31-2.69,0Z" transform="translate(0 108.29)"/><path class="cls-8" d="M235.76,271.34,228,274l-2.85-.39-2.88,1.68-6-.17-4-4.69-2.47-5.42-5.31-4.94-5.63.09h-6.62l.43-12.08-.18-4.77,1.41-4.73,2.31-2.3,3.63-4.64-.79-2,1.48-3-1.68-4.45.29-2.49.52-6.69,2.15-3,1.05-4.32,1.95-1.62,8.06-.89,7.51,2.8,2.82,2.83,3.82.13,3.55-1.84,9.08,3.88,3.82-.19,4.42-3.19,4.4.22,2.16-1,4,.44,5.8,2.19,5.86-4.19,1.76.29,5.07,8.21,1.4-.16,3,3-.82,1.36-.4,2.49-6.31,5.8-2,4.79-1.06,3.9-1.59,1.67-1.51,5.25-4,3.09-1.17,3.79-1.68,3-.7,3.12-5.15,2.52-4.21-3.08-2.84.13-4.47,4.39-2.17.06L237.69,266Z" transform="translate(0 108.29)"/><path class="cls-6" d="M400.08,315.63l3,4.24-.43,4.41-2.16,1-4-.49L394.18,329l-4.55-.59.69-4.11,1-.57.28-4.47,2.15-2.09,1.82.77Z" transform="translate(0 108.29)"/><path class="cls-6" d="M106.1,103.76l-.17-4h1.14v.5l-.15,1.45,0,11.36-24.61-.39.25,19.18-7,.68-1.83,3.85,1.42,10.83-29.36-.05-1.63,2.5.32-3.17h.13l16.88-.6.9-2.7,3.07-3.37,2.48-10.35,10.42-8.09,3.53-9.46,2.34-.54,2.44-5.85,6.31-.8,2.71,1h3.4l2.42-1.71Z" transform="translate(0 108.29)"/><path class="cls-5" d="M426.65,236.16l-1-.15.13-3.73-.9-2.58-3.86-3-.9-5.4.9-5.54-3.48-.52L417,217l-4.51.38,1.8,2.19.65,4.51-4.12,4.12-3.73,5.4-3.86.78L396.91,230l-2.83,1.54-.77,2.19-3.86,1.42-.26,1.54h-7.47l-1-1.54-5.4-.26-2.7,1.29-2.06-.64-3.86-4.38-1.29-2.06-5.41,1-2.06,3.47-1.93,6.7-2.57,1.41-2.3.82-.61-.35L347.9,240l-.48-2.33,1.22-3.12,0-3.06-4.32-4.69-.85-3.2.09-1.82-2.75-2.21-.09-4.36-1.57-2.89-2.63.43.75-2.75,1.95-3.13-.85-3.1,2.46-2.3-1.56-1.75,2-4.63,3.42-5.53,6.47.53-.37-29.77.09-3.14,8.62,0v-15h89l2.42,7.36-1.65,1.36,1.09,7.72,2.75,9,2.86,1.85,4.1,2.77-3.79,4.28-5.52,1.23-2.36,2.3-.74,5-3.23,11,.8,3-1.2,6.44-3.05,7.39-4.52,3.71-3.21,5.73-.76,3.07-3.55,2.1-2.22,7.84Z" transform="translate(0 108.29)"/><path class="cls-6" d="M426.65,236.16l.08,5.85-1.12,2.29-4,.18-2.56,4.27,4.61.54,3.8,3.65,1.31,3,3.42,1.74,4.43,8.16-5.08,4.94L427,275.26l-4.61,3.45-5.28,0-6,1.75-4.77-1.67-3.08,2-6.6-5-1.78-3.2-4.18,1.58-3.47-.49-2,1.26-3.37-.91-4.54-6.19-1.2-2.38-5.61-3-1.89-4.5-3.13-3.25-5-3.9-.07-2.44-4.1-3-5.1-2.93,2.3-.82,2.57-1.41,1.93-6.7,2.06-3.47,5.41-1,1.29,2.06,3.86,4.38,2.06.64,2.7-1.29,5.4.26,1,1.54h7.47l.26-1.54,3.86-1.42.77-2.19,2.83-1.54,6.31,4.38,3.86-.78,3.73-5.4,4.12-4.12-.65-4.51-1.8-2.19L417,217l.51-1.68,3.48.52-.9,5.54.9,5.4,3.86,3,.9,2.58-.13,3.73Z" transform="translate(0 108.29)"/><path class="cls-6" d="M46.74,205.18l-3.09-5.83-3.74-2.67,3.29-1.43L46.84,190l1.78-3.85,2.56-2.41,3.73.65,3.66-1.63,4.18-.09,3.59,2.21,5,2,4.54,5.51,5,5.15.34,4.67,1.48,4.29,2.8,2.11.64,2.9-.34,2.33-1.08.43-4.09-.6-.56.84-1.66.16L73,212.83l-3.62-.08-13.86-.32-2,.85L51,213l-4,1.22-1.23-5.75,6.82.16,1.81-1,1.34-.06,2.78-1.73,3.21,1.58,3.26.13,3.24-1.68-1.51-2.17L64.26,205l-2.33,0-3-1.85-2.37.12L54.9,205Z" transform="translate(0 108.29)"/><path class="cls-6" d="M86.28,256.24l-2-.55-5.39-3-3.91-4-1.31-2.74-.92-5.54,4-3.3L77.6,235l1.28-1.62L81,233.2l1.75-1.41h6l2.09,2.68,1.62,3.15-.24,2.18,1.2,2-.08,2.75,2.06-.43-3.49,3.5-3.38,4.07-.4,2.18Z" transform="translate(0 108.29)"/><path class="cls-6" d="M538.91,236.25l-3.39,4.61-5.22,6.26-6.31,0-24.51-8.9-2.86-2.67L493.85,232l-2.77-4.13,1.64-2.66,2.76-4,2.44,1.38,1.47,3.1,3.38,3.14,3.72,0,7.07-1.92,8.16-.89,6.6-2.33,3.72-.49,2.67-1.37,4.27-.27,0,.13,0,3.09v11.47Z" transform="translate(0 108.29)"/><path class="cls-5" d="M544.83,220.3l4-.75,3.55-2.57,2.84,0,.17,2.07-.69,4.36,0,4-1.58,2.7L551,238.15l-3.61,8.38-4.63,9.57-6.44,11-6.4,8.4-8.81,10.23-7.51,6.07-11.21,7.44-7,5.71-8.2,9.08-1.73,4-1.69,1.78-4.44-6.19-.09-27.31,6.55-8.51,2.05-2.36,4.81-.14,6.68-5.29,9.76-.33,21.19-22.5,5.22-6.26,3.39-4.61V224.78l0-3.09,0-.13,2.4-.14Z" transform="translate(0 108.29)"/><path class="cls-5" d="M412.47,507.59l-1.53,3.33-4.39.81-4.47-4.07-.07-2.59,2-2.81.71-2.19,2.17-.53,3.78,1.37,1.11,3.37Z" transform="translate(0 108.29)"/><path class="cls-5" d="M280.71,210.7l.75-3.53-4.81-.17v-4.83l-3.12-2.78,3.24-9.87,9.56-7.07.4-9.76,2.89-15.21,1.63-3.23-3.12-2.57-.12-2.39-2.81-1.95-1.84-11.65,7.57-4.1L320.84,146l29.9,14.35.37,29.77-6.47-.53-3.42,5.53-2,4.63,1.56,1.75-2.46,2.3.85,3.1L337.24,210l-.75,2.75,2.63-.43,1.57,2.89.09,4.36,2.75,2.21-.09,1.82-4.75,1.27-3.8,3-5.42,8.18-7.05,3.47-7.24-.46-2.12.69.75,2.64L309.9,245,306.71,248l-9.44,2.87-1.87-1.7-1.24-.15-1.38,1.93-6.2.56,1.17-2-2.36-5.17-1.05-3.1-3.27-1.27-4.42-4.38,1.62-3.54,3.42.75,2.12-.53,4.18.07-4.08-6.81.28-5-.5-5Z" transform="translate(0 108.29)"/><path class="cls-7" d="M186,261.07l-6,1.6L178.31,260l-2-4.76-.59-3.73,1.65-6.75-1.88-2.74-.71-5.91v-5.44l-3.13-3.87.55-2.34,6.57.16-.95,4,2.29,2.21,2.6,2.63.28,3.68,1.51,1.55-.34,17.22Z" transform="translate(0 108.29)"/><path class="cls-5" d="M243.12,79.87l-3.2-13.47-4.62-3-.06-1.82-6.13-4.46-.67-5.65,4.63-4.18,1.76-6.19-1.19-7.15,1.52-3.85,8.17-3,5.25.9-.22,3.79L254.72,29l.53,1.44-3.75,3.68-.05,3.46,2.6,1.87-1,6.49-4.94,3.77,1.43,4.08,3.88.13,1.88,3.57,2.85,1.17-.42,5.76-3.65,2.15L251.78,69l-5.15,2.89.8,3.11-.65,3.17Z" transform="translate(0 108.29)"/><path class="cls-6" d="M426.2,314.25l1.27.82,27.18,15.28.51,4.35,10.76,7.5-3.46,9.23.44,4.25,4.8,2.74.23,1.95-2.07,4.52.43,2.28-.49,3.58,2.62,4.71,3.1,7.39,2.76,1.64-6,4.35-8.2,2.91-4.49-.12L453,393.87l-5.22.2-2,.95-9-2.12-5.64.61-2.1-10.2-2.54-3.5L425,377.74l-7.35-1.4-4.25-2.25-4.77-1.26-3-1.26-3.13-1.91-4.05-9.44-4.34-4.2-1.5-4.35.75-3.9-1.35-6.9,3.1-.36,2.72-2.71,2.92-3.91,1.84-1.57-.06-2.44-1.62-1.7-.43-2.95,2.16-1,.43-4.41-3-4.24,2.63-.9,8.22.1Z" transform="translate(0 108.29)"/><path class="cls-5" d="M410.93,314.83l-8.22-.1-2.63.9L395.6,318l-1.82-.77.07-5.65,1.73-2.86.42-6,1.58-3.49,2.87-3.91,2.88-2,2.41-2.66-3-1,.46-8.77,3.08-2,4.77,1.67,6-1.75,5.28,0,4.61-3.45,3.55,5.2.88,3.77,3.3,8.61L432,298.3l-3.69,5-2.15,3,.08,7.95Z" transform="translate(0 108.29)"/><path class="cls-6" d="M408.34,526.51l-1.47,1.09-3.17,3.81-2.1,3.85-4.25,5.37-8.47,7.74-5.29,4.5-5.66,3.41-7.84,2.91-3.82.39-1,2.08-4.55-1.11L357,562l-8.13-1.45-4.54.92-3.1-.39-7.74,3-6.4,1.18L322.5,568l-3.41.18-3.17-2.68-2.53-.13-3.23-3.35-.36,1-1-2,0-4.39-2.44-5,2.42-1.36-.19-5.76-4.91-7L300,531.17v0l-5.38-9.74,3.59-3.71,3,2,1.26,3.21,3.37.55,4.71,1.41,4-.54,6.69-3.84V492.85l2,1.12,4.45,7.13-.69,4.57,1.67,2.63,5.37-.76,3.75-3.35,3.55-2.26,1.83-3.59,3.66-1.74,3.16.91,3.58,2.1,6.1.38,4.79-1.75.76-2.34,1.32-3.59,4.08-.6,2.25-2.81,2.5-5,6.73-5.6,10.61-5.52,3.05.08,3.63,1.27,2.52-.9,4,.75,3.59,10.55,2,5.33-1.34,8.36.64,2.69-3.78-1.37-2.17.53-.71,2.19-2,2.81.07,2.59,4.47,4.07,4.39-.81,1.53-3.33,5.68.06-1.87,5.46-.89,6.23-1.94,3.39Zm-19.06-2.26L386,521.94l-3.5,1.53-4.06,2.93-4,4.75,5.62,5.77,2.69-.75,1.37-2.39,4.18-1.17,1.28-2.45,2.3-3.65Z" transform="translate(0 108.29)"/><path class="cls-8" d="M417.62,376.34l3.54,3.35,1.91,6.36-1.28,2-1.51,6.08,1.44,6.22L419.36,403l-2.27,7,3.94,1.94-22.75,6.18.71,5.34-5.68,1-4.27,3-.91,2.59-2.68.59-6.52,6.17-4.15,4.85-2.53.18-2.44-.87-8.38-.82-1.34-.56-.06-.62-3-1.69-4.86-.43-6.14,1.7-4.89-4.68-5.06-6.14.35-23.85,15.61.09-.64-2.59,1.11-2.81L351.24,395l.85-3.64-.79-2.33,2.58.19.43,2.33,3.52-.18,4.76.69,2.5,3.41,6,1,4.58-2.37,1.68,3.93,5.74,1,2.77,3.2,3.08,4.12,5.73.07-.62-8.09L392,399.81l-5.24-2.91-2-1.34.93-7.53,1.33-8.87-1.68-3.31,2.14-4.79,2-.89,10.07-1.27,3,.76,3.13,1.91,3,1.26,4.77,1.26Z" transform="translate(0 108.29)"/><path class="cls-6" d="M405.87,474l-4-.75-2.52.9-3.63-1.27-3.05-.08-4.78-3.39-5.8-1.15-2.2-4.76,0-2.64-3.21-.81-8.49-8.23-2.35-4.34-1.51-1.34-2.89-6,8.38.82,2.44.87,2.53-.18,4.15-4.85,6.52-6.17,2.68-.59.91-2.59,4.27-3,5.68-1,.49,2.8,6.25-.15,3.47,1.58,1.62,1.86,3.57.54,3.89,2.41,0,9.49-1.46,5.2-.32,5.6,1.2,2.22-.85,4.42-1.13.68-2,5.41Z" transform="translate(0 108.29)"/><path class="cls-6" d="M558.71,125.32,560,125l.28,2.05,5.87-1.18,6.2.2,4.53.22,5.13-5.07,5.59-4.81,4.74-4.62,1.43,2.56,1,5.92-3.82,0-.62,4.88,1.33,1-3.4,1.48,0,3.07-2.18,3.1-.2,3-1.51,1.58-22.53-3.78L559,127.06Z" transform="translate(0 108.29)"/><path class="cls-5" d="M498.76-1l10.42-1.17,1.55,2,2.86,1.3L512.08,3l4,2.57L514,7.94l3.18,2,3.37,1.22.16,5.21-2.71.22-3.06-4.34,0-1.16-3.31,0-2.22-2-1.56.2-2.95-2.19-5.58-1.86L500,1.64Z" transform="translate(0 108.29)"/><path class="cls-6" d="M509.4,9.14l2.22,2,3.31,0,0,1.16L518,16.63l-5.14-1L509,12.17l-1.19-2.83Z" transform="translate(0 108.29)"/><path class="cls-6" d="M527.18-2l3.31.51,1.29-1.9,4.48-3,3.94,4L544,2.89l3.49.35,2.31,2-6.17.61-1.3,5.82-1.29,2.63-2.75,1.75.2,3.71-1.87.38L532,16.23l2.58-3.71-2.21-2.2-2.82.55-8.84,5.54-.16-5.21L517.14,10l-3.18-2,2.11-2.39-4-2.57,1.51-1.88L510.73-.2l-1.55-2L511-3.4l5.58,2.16,4,.45,1-.88L518-5.73l1.95-1,2.11.26Z" transform="translate(0 108.29)"/><path class="cls-5" d="M1028.18,273.19l3-2.81,6.38-4.1-.34,3.69-.43,4.79-3.59-.24-1.57,2.56Z" transform="translate(0 108.29)"/><path class="cls-5" d="M859.45,98.88l3.06,2.39-.53,4.61-6.12.22-6.33-.5-4.71,1.17L838,103.93l-.16-1.51,5-5.57,4-1.9,5.36,1.73,4,.18Z" transform="translate(0 108.29)"/><path class="cls-5" d="M417.41,43.63l.53,0L419,41.78l5.4.1,6.81-2.24-5.06,3.2.54,1.4-.8-.26-1.43.57-1.12-.16-.38.29-.15-.76-.54-.46-1.44-.08-2,.64Z" transform="translate(0 108.29)"/><path class="cls-5" d="M426.72,44.24l.24.6-7.69,3-3.67-1-1.75-3,3.56-.28,1.41.39,2-.64,1.44.08.54.46.15.76.38-.29,1.12.16,1.43-.57Z" transform="translate(0 108.29)"/><path class="cls-5" d="M483.55-4.33l1.12-3.2-1.87-5.12-4.33-2.76-4.16-.86-2.75-2.3.92-.89,6.34,1.29,11,1.21,10.21,3.59,1.31,1.4,4.55-1.18,7,1.57,2.3,3.08,4.71,1.73-1.95,1,3.69,4.06-1,.88-4-.45L511-3.4l-1.84,1.23L498.76-1l-7.22-3.68Z" transform="translate(0 108.29)"/><path class="cls-6" d="M576.27,28.19l6.58-1.45,5.34-4.29,5,.22,3.29-1.4,5.33.69,8.29,3.81,6,.82,8.57,6.64,5.58.26.66,6.31-3,9.35L625.8,54.6l3.26,1.11-3.21,4.11,2.46,6,.59,4.76,5.67,1.27.62,4.82-6.8,6.8,3.71,4,3,4.52,7.16,3.3.21,6.61,3.59,1.21.62,3.45-10.81,3.88-2.83,8.71L619,116.81l-8.18-1.72-8.46-1-3.19-9.2-3.59-1.33-5.76,1.34-7.56,3.63-9.16-2.49-7.57-5.76-7.22-2.13-5-7.12-5.53-10-4,1.22-4.77-2.49-2.8,2.93L532,78.78l-.07-4h-2.39l1.22-5.43-3.85-5.7-9.19-4.11-5.19-7.13,1.74-5.85L518,44l-.57-4.38-4.91-2.25-4.86-9-4.1-6,1.47-2.33-2.34-8.59,5.13-2.14L509,12.17l3.79,3.46,5.14,1,2.71-.22,8.84-5.54,2.82-.55,2.21,2.2L532,16.23l4.67,3.93,1.87-.38,2.37,5.53L548,26.87l5.2,3.77,10.66,1.29,11.71-2Z" transform="translate(0 108.29)"/><path class="cls-5" d="M512.54,37.35l4.91,2.25L518,44l-3.77,2.59-1.74,5.85,5.19,7.13,9.19,4.11,3.85,5.7-1.22,5.43h2.39l.07,4,4.15,3.94-4.45-.37-5-.62-5.5,7.2-13.94-.6L486.07,73.25,474.9,68l-9-2-3-9.13L479.44,49,482.28,40l-.71-5.48,4.1-1.85L489.52,28l3.22-1.17,8.72,1,2.63,1.91,3.59-1.27Z" transform="translate(0 108.29)"/><path class="cls-5" d="M439.82,61.86l-1.31,2.36-2.71-1-1.57,5,1.88.84-1.91,1-.33,2,3.53-1,.17,2.91-3.73,12L428.91,73l2.18-2.47-.51-.43,2-3.5L434.08,61l1.08-1.9.2-.08,2.51,0,.69-1.32,2-.09.12,3.07-1,1.14Z" transform="translate(0 108.29)"/><path class="cls-6" d="M438.51,64.22l1.31-2.36,8.35,3,14.68-8,3,9.13-1.43,1.13-15,3.76,7.47,7.5-2.48,1.27-1.23,2.51-5.72,1-1.8,2.7-3.24,2.31L434.09,87l-.25-1.09,3.73-12L437.4,71l1.11-2.2Z" transform="translate(0 108.29)"/><path class="cls-5" d="M704-9.81l-4.3,1.39-9.89,5.23-3.28,5.36-2.79.05L681.7-1.33l-9.53-.24-1.53-6.15-3.65,0,.56-7.52-9-5.48-12.86.59-8.79,1.09-7.16-6.76-6.14-2.84L612-34l-1.4-.66-19.29,4.44.29,27.64-3.85.37-5.24-5.88-5.07-2.1-8.51,1.56-3.31,2.49L565.21-8l1.84-3.13-1.43-2.61-8.69-2.56L553.55-23l-4.14-1.9-.25-2.44,7.29.71.29-5.48,6.38-1.22,6.55,1.12L571-39.56l-1.33-4.64-7.5.36-6.38-1.83-8.68,3.3-7,1.57L536.32-42l.76-3.86-4.78-5-5.56.21-6.36-5.09,4.33-5.68L522.52-63l6-8.24,7.71,4.35.93-5.48,15.48-8.15,11.71-.2,16.52,5.2,8.88,3,7.95-3.16,11.89-.15,9.58,3.88,2.18-2.22,10.53.32,1.88-3.55L621.59-82.5l7.2-3.65-1.41-2,7.2-2-5.41-5.14,3.43-2.56,28.06-2.61,3.66-1.85,18.76-2.77,6.74-3.11,13.47,1.62,2.36,7.77,7.83-1.83,9.62,2.56L722.48-94l7.19-.42,18.79-7.08-2.74,2.35,9.56,5.79,16.76,19,4-3.93,10.33,4.32,10.77-1.93,4.14,1.35,3.61,4.34,5.24,1.45,3.19,3.19,9.66-1,4,4.59-5.7,5-6.23.7-.36,7.52-4.17,3.39-14.87-2.47L790.2-34.35l-3.84,1.67-14.85,3,6.75,13-5.14,1.95.6,4.28-4.62-1.1-3.76-2.7L754.21-15l-12.43-.21-2.72.83-10.68-3.16L724.13-16,723-11.57l-12.33-2.58-4.94,1.06Z" transform="translate(0 108.29)"/><path class="cls-5" d="M704-9.81l1.67-3.28,4.94-1.06L723-11.57,724.13-16l4.25-1.56,10.68,3.16,2.72-.83,12.43.21,11.13.78,3.76,2.7,4.62,1.1-1.06,1.69L760.85-4.68l-2.67,3-9.62.89L745.73,4l-7.94-1-5.18,1.47L725.46,8l1,1.76-2.14,1.71-14.17,1.14-9.26-2.44-8.13.59.71-4.33,8.16,1.26,2.74-2.32,5.71.74,9.6-5.4-8.89-3.95-5.34,1.87L700-4.21l6.29-4.86Z" transform="translate(0 108.29)"/><path class="cls-6" d="M531.68,82.35l1.57,3.31-.67,1.71L535,93l-5.3.19-1.86-3.57-6.68-.72,5.5-7.2Z" transform="translate(0 108.29)"/><path class="cls-5" d="M440.57,57.6l-2,.09L437.87,59l-2.51,0,2.67-6.1,3.73-5.29.14-.26,3.38.38,1.22,2.94-4.09,2.83Z" transform="translate(0 108.29)"/><path class="cls-6" d="M918.28,155.76,913.9,159l-5.29.33-3.42,8.11L902,168.81l3.62,6.58,4.76,5.48,3.07,4.95-2.74,6.52-2.59,1.38,1.79,3.76,5,6,.85,4.19-.11,3.48,2.93,6.84-4.12,7-3.63,7.7-.72-5.56,2.3-5.75-2.52-4.43.61-8.17-3-3.89-2.45-9-1.35-9.47-3.24-6.21L895.51,184,887,189.29l-4.21-.67-4.64-1.75,2.58-9.3-1.56-7-5.88-8.64.92-2.71-4.39-1-5.32-6.11-.49-6,2.62,1.14.15-5.38,3.7-1.78-.79-3.18,1.69-2.56.29-7.76,5.86,1.71,3.34-6.18.38-3.65,4.14-6.29-.23-4.3,9.71-5.18,5.36,1.36-.62-4.61,2.63-1.38-.57-2.84,4.39-.56,2.5,4.41,3.28,1.79.22,5.74-.31,6.19-7.1,6.26-.89,8.89,7.91-1.24,1.79,6.9,4.74,1.45L916,141.27l5.57,2.82,3.24,1.38,5.5-2.19.23,3.1-6.38,4.88-1.6,2.76Z" transform="translate(0 108.29)"/><path class="cls-6" d="M613.3,148.8l-2.8,5.14-3.4-.39-1.56,1.78-1.2,3.81.92,5-.71.92-3.45,0-4.68,2.8-.73,3.65L594,173.08l-4.66-.06-2.93,1.89,0,3L582.79,180l-4.14-.71-5,2.53-3.47.43L567.73,177l-5.87-12.37,22.49-7.5,5-15-3.44-5.31.2-3,2.18-3.1,0-3.07,3.4-1.48-1.33-1,.62-4.88,3.82,0,3.36,5.12,4.19,2.72,5.5,1,4.44,1.37,3.38,4.3,2,2.49,2.69.95,0,1.67-2.73,4.47-1.19,2.1Z" transform="translate(0 108.29)"/><path class="cls-6" d="M594.78,113l-1,1.36-1.43-2.56,2.18-2.55.93.65Z" transform="translate(0 108.29)"/><path class="cls-6" d="M438.51,64.22v4.59L437.4,71l-3.53,1,.33-2,1.91-1-1.88-.84,1.57-5Z" transform="translate(0 108.29)"/><path class="cls-5" d="M552.94,121.5l-.49-5.45,2-3.94,2-.8,2.27,2.35.13,4.39-1.62,4.41-2.08.53Z" transform="translate(0 108.29)"/><path class="cls-9" d="M492.74,184.54l-1-3.2-2.26-2.26-.57-3-3.88-2.68-4-6.29L478.94,161l-5.18-5.16-3.34-1.23-5-7.15-.87-5.21.32-4.45-4.3-8.31-3.51-2.93L453,125l-2.47-4.29L451,119l-2.08-3.89-2.19-1.67-2.93-5.58-4.56-6-3.83-5.15-3.73,0,1.17-4.12.33-2.62.93-3,8.34,1.19,3.24-2.31,1.8-2.7,5.72-1,1.23-2.51,2.48-1.27-7.47-7.5,15-3.76L465.87,66l9,2,11.17,5.25,21.14,15.08,13.94.6,6.68.72,1.86,3.57L535,93l2.94,6.47,3.69,1.71,1.28,2.63L548,107l.45,3.1-.74,2.5.95,2.51,2.15,2.11,1,2.46,1.12,1.83,2.27,1.49,2.08-.53,1.42,2.86.29,1.74,2.87,7.59,22.53,3.78,1.51-1.58,3.44,5.31-5,15-22.49,7.5-21.61,2.87-7,3.37-5.37,7.88-3.5,1.25-1.88-2.5-2.87.37-7.25-.75L511,176.4l-8.65.18-2,.67-3.08-1.95-2,3.69.77,3.16Z" transform="translate(0 108.29)"/><path class="cls-5" d="M462.85,56.84l-14.68,8-8.35-3-.15,0,1-1.14-.12-3.07,1.84-4.11,4.09-2.83-1.22-2.94-3.38-.38-.7-5.74L443,38.52l2-1.64,2-1.65.41-4.18,2.45,1.46,8.26-2.09,4,1.42,6.16,0L477,29l4,.12L489.52,28l-3.85,4.68-4.1,1.85.71,5.48L479.44,49Z" transform="translate(0 108.29)"/><path class="cls-6" d="M704.4,5.35l-2.74,2.32L693.5,6.41l-.71,4.33,8.13-.59,9.26,2.44,14.17-1.14,1.91,6.94,2.46-.75,4.55,1.7L733,22.26l1.13,4.27H726.4L721.24,26l-4.67,3.36-3.33.74-2.61,1.58-3-2.46.7-6.3-2.27-.36.82-2.29-4.06-1.7-3.23,2.61-.79,3-1.15,1.1-4.49-.15-2.41,3.43-2.53-1.45-5.43,2.41-2.29-.91L684.75,21l-1.62-5.59-5.5-1.79,1.94-3.3,6.26.36,3.56-4.15,2.39-4.81L701.8,0l-1.56,3.47,1.07,2.09Z" transform="translate(0 108.29)"/><path class="cls-9" d="M630.91,39.8l-.66-6.31-5.58-.26-8.57-6.64-6-.82L601.82,22l-5.33-.69-3.29,1.4-5-.22-5.34,4.29-6.58,1.45-1.4-5.3L576,15l-5.84-2.53L572,7.37l-5-.44L568.72.61l7.07,1.85,6.59-2.4-5.46-4.5-2.15-4.29-6,1.91L568-1.33l-2.34-4.86,3.31-2.49,8.51-1.56,5.07,2.1,5.24,5.88,3.85-.37,8.46-.1-1.23-3.78,6.4-2.58,6.32-4.36,10.1,4,.8,6L625.33-2l8.1-.35L636-.95l3.68,7.73L648.21,12l4.89,3.53,7.84,3.67,10,3.21L670.7,27l-2.26-.23-3.53-2-1.18,2.67-6.31,1.45-1.5,6-4.23,2.28-5.91,1.13-1.57,3.4-5.65,1Z" transform="translate(0 108.29)"/><path class="cls-5" d="M1108.88,373.81l.88-1.77,6.46-1.69,5.23-.25,2.34-.94,2.84.93-2.76,2-7.81,3.28-6.28,2.15-.14-2.27Z" transform="translate(0 108.29)"/><path class="cls-5" d="M448.76-2.83,459.52.07l8.73-1.15,6.45.67,8.85-3.92,8-.35L498.76-1,500,1.64l-.72,3.65,5.58,1.86,2.95,2.19-5.13,2.14,2.34,8.59-1.47,2.33,4.1,6-3.59,1.27-2.63-1.91-8.72-1L489.52,28,481,29.12,477,29l-8.63,2.81-6.16,0-4-1.42-8.26,2.09-2.45-1.46-.41,4.18-2,1.65-2,1.64-2.76-3.4,2.84-2.82-4.57.64-6.27-1.72-5.16,4.31-11.37.84-6.07-4-8.08-.25-1.73,3.11-5.18.89-7.25-4-8.19.13-4.44-7.46-5.48-4.16L373,14.79l-4.75-3.58L376.54,4l11.55-.3L391.24-2l14.29,1,9-4.86,8.73-2.12,12.41-.16Z" transform="translate(0 108.29)"/><path class="cls-5" d="M375.89,2l-6.26,4-2.36-3.5L367.38,1l1.78-.84,2.32-4.7-3.65-2,7.63-2.36,6.46,1L382.81-5l6.54,2.42L388-.72l-8.9.41Z" transform="translate(0 108.29)"/><path class="cls-6" d="M670.7,27l.21-4.59-10-3.21-7.84-3.67L648.21,12l-8.58-5.18L636-.95l-2.52-1.36-8.1.35L622.46-3.5l-.8-6-10.1-4-6.32,4.36-6.4,2.58,1.23,3.78-8.46.1-.29-27.64,19.29-4.44L612-34l11.62,5.36,6.14,2.84,7.16,6.76,8.79-1.09,12.86-.59,9,5.48L667-7.77l3.65,0,1.53,6.15,9.53.24,2.06,3.55,2.79-.05,3.28-5.36,9.89-5.23L704-9.81l2.22.74L700-4.21l5.53,2.82,5.34-1.87,8.89,4-9.6,5.4-5.71-.74-3.09.2-1.07-2.09L701.8,0l-10,1.74-2.39,4.81-3.56,4.15-6.26-.36-1.94,3.3,5.5,1.79L684.75,21l-4.22,7.59L674.88,27Z" transform="translate(0 108.29)"/><path class="cls-5" d="M570.17,182.27l-5.42,2-1.45,3.33-.18,2.56-7.46,3.17-12,3.49L537,202.12l-3.3.42-2.25-.45L527,205.21l-4.78,1.44L516,207l-1.89.42-1.64,2-2,.55-1.16,1.91-3.71-.17-2.4,1-5.19-.38L496.06,208l.22-4.1-1.23-2.21-1.47-5.55-2.15-3.08,1.5-.37-.77-3.42.91-1.45-.33-3.27,3.29-2.39-.77-3.16,2-3.69,3.08,1.95,2-.67,8.65-.18,1.37.75,7.25.75,2.87-.37,1.88,2.5,3.5-1.25,5.37-7.88,7-3.37,21.61-2.87L567.73,177Z" transform="translate(0 108.29)"/><path class="cls-5" d="M326.39-6.73l-.95,2.56L326.51-1,329.62.87l-.15,2L327,3.93l-.45,2.43L323.09,10l-1.27-.53-.15-1.65-4.15-2.51-.66-3.58.64-5.11,1-2.33-1.26-1.18-.51-2.39L320-13l.47,1.41,2-.66,1.6,2,1.79.77Z" transform="translate(0 108.29)"/><path class="cls-5" d="M104.3-6.91l.38-5.34-3.06-3.26,10.61-5.41,9.17,1.35,10.06,0,8,1.28,6.23-.4,12.11.25,3,2.92,13.8,3.4,2.73-1.62,8.43,3.4,8.69-1,.4,4.36-7.1,5L178.11-.42l-.67,2.52-4.6,4.16L170,12.36l2.92,4.29L168.53,20l-1.62,4.88-5.66,1.49-5.31,5.77-9.51.11-7.15-.14-4.69,2.65-2.87,2.83L128.06,37l-2.78-2.54-2.12-4.31-7-1.16-.63-2.48,2.78-2.82,1-2-2.59-2.23,2.07-4.93-3-4.5,3.24-.61.3-3.55,1.22-1.09.1-5.85,3.46-2L122-6.94l-4.36-.26-1.29,1H112l-1.88-3.67-3,1.09Z" transform="translate(0 108.29)"/><path class="cls-5" d="M349.71,39.39l4.09,2.53,5.84-.43,5.58.53L365,43.33l4.08-.9-.93,2.21-10.8.64.08-1.24-9.15-1.46Z" transform="translate(0 108.29)"/><path class="cls-5" d="M371.48-4.53,369.16.17,367.38,1,362.81.79,358.9.09,349.82,2,355,6.25l-3.8,1.22H347l-4-3.86-1.4,1.64,1.67,4.48,3.75,3.52-2.82,1.64,4.17,3.46,3.71,2.17.12,4.24-6.94-2,2.21,3.83-4.76.79L345.62,34l-5,.1-6.15-3.27-2.81-6-1.31-5-2.93-3.45-3.84-4.28L323.09,10l3.49-3.64L327,3.93l2.44-1.09.15-2,4.9-.67,2.86-1.64,4.06.15,1.23-1.31,1.43-.25,5.55.22,6-2.06,5.28,2.62,6.81-.71.09-3.73Z" transform="translate(0 108.29)"/><path class="cls-6" d="M288.39,20.45l-2.7,5.9,1.12,2.33-1.57,3.85-5.74-2.82-3.81-.81-10.46-3.81,1-3.85,8.77.68,7.65-.81Z" transform="translate(0 108.29)"/><path class="cls-6" d="M241.08-1.89l4.5,5.33-1.06,9.92-3.4-.48-3.06,2.51-2.84-2-.3-9L233.21.06l4.12.38Z" transform="translate(0 108.29)"/><path class="cls-6" d="M264.82-43.56l10.72,1.94-.81,3.69,1.79,3.19-6-1.09-6.09,2.66.41,3.72L264-27.31l2.45,3.82,7,3.77,3.77,6.2,8.34,6.05,5.88,0,1.83,1.66-2.11,1.49,6.72,2.71,5.5,2.27,6.43,3.91.78,1.4-1.41,2.69L305,5.1,298.5,3.87l-3.15,4.85,5.41,2.78-.88,3.91-3.14.45-4,6.43-3.13.58,0-2.3,1.53-4L292.8,15l-2.93-4.34-2.28-3.79-3.12-.93-2.21-3.24-4.82-1.36-3.24-3-5.55-.49L262.8-5.59l-6.86-4.89-5.1-4.31-2.34-7.42-3.73-.87-6.1-2.47-3.45,1-4.33,3.48-3.12.55.86-3.26-4.06-.95-1.93-5.8,2.6-2.28L223-35.62l.31-2.12,3.23,1.61,3.61-.36,4.2-2.54,1.3,1.19,3.57-.24,1.63-3,5.54.93,3.31-1.26.59-3.07,4.54,1.06.87-1.42,7.41-1.31Z" transform="translate(0 108.29)"/><path class="cls-6" d="M104.3-6.91,107-8.82l3-1.09L112-6.24h4.43l1.29-1,4.36.26,2.1,3.77-3.46,2-.1,5.85L119.36,5.8l-.3,3.55-3.24.61,3,4.5-2.07,4.93,2.59,2.23-1,2-2.78,2.82.63,2.48-3,1.95-4-1.06-3.87.83,1.15-5.87-.7-4.61-3.36-.69-1.79-2.85.59-4.9,3-2.73.54-3,1.56-4.51-.17-3.17-1.5-2.7Z" transform="translate(0 108.29)"/></g><g class="cls-10"><rect class="cls-11" x="34.32" y="561.99" width="36.85" height="11.34"/><rect class="cls-12" x="71.17" y="561.99" width="36.85" height="11.34"/><rect class="cls-13" x="108.02" y="561.99" width="36.85" height="11.34"/><rect class="cls-14" x="144.87" y="561.99" width="36.85" height="11.34"/><rect class="cls-15" x="181.72" y="561.99" width="36.85" height="11.34"/></g></g><g id="légende"><text class="cls-16" transform="translate(71.36 556.74)"><tspan class="cls-17">P</tspan><tspan x="8.09" y="0">art de vert (en %)</tspan></text><text class="cls-16" transform="translate(63.51 588.23)">20</text><text class="cls-16" transform="translate(100.46 588.23)">40</text><text class="cls-16" transform="translate(137.02 588.23)">60</text><text class="cls-16" transform="translate(173.78 588.23)">80</text></g><g id="Source"><text class="cls-18" transform="translate(22.79 672.41)">Sou<tspan class="cls-19" x="19.8" y="0">r</tspan><tspan class="cls-20" x="24.02" y="0">c</tspan><tspan x="29.86" y="0">es :</tspan><tspan class="cls-21" x="46.93" y="0" xml:space="preserve"> Wikipedia &amp; {</tspan><tspan class="cls-22" x="115.45" y="0">c</tspan><tspan class="cls-21" x="121.1" y="0">olorfind</tspan><tspan class="cls-23" x="160.63" y="0">r</tspan><tspan class="cls-21" x="164.5" y="0">}</tspan><tspan class="cls-24" x="0" y="12">T</tspan><tspan class="cls-20" x="6.06" y="12">r</tspan><tspan x="10.3" y="12">ai</tspan><tspan class="cls-25" x="19.48" y="12">t</tspan><tspan x="23.66" y="12">e</tspan><tspan class="cls-26" x="29.97" y="12">m</tspan><tspan x="40.52" y="12">ents :</tspan><tspan class="cls-21" x="68.85" y="12" xml:space="preserve"> Jean Dupin - @JeanDup1n</tspan></text></g><g id="Titre"><text class="cls-27" transform="translate(24.33 454.7)">H<tspan class="cls-28" x="29.02" y="0">o</tspan><tspan x="52.42" y="0">w </tspan><tspan class="cls-14" x="97.49" y="0">G</tspan><tspan class="cls-29" x="125.21" y="0">r</tspan><tspan class="cls-14" x="140.9" y="0">een</tspan><tspan x="0.74" y="43.2">is </tspan><tspan class="cls-30" x="42.14" y="43.2">m</tspan><tspan x="79.4" y="43.2">y fla</tspan><tspan class="cls-31" x="163.1" y="43.2">g</tspan><tspan x="189.66" y="43.2">?</tspan></text></g></svg>